<svg xmlns="http://www.w3.org/2000/svg" enable-background="new 0 0 300 225" viewBox="0 0 300 225" id="business-deal"><g><path fill="none" stroke="#000" stroke-miterlimit="10" stroke-width=".316" d="M34.35,118.83c0,0-2.53-68.08,64.78-54.34c35.96,7.34,54.66-6.24,63.01-15.84c6.01-6.9,14.16-11.57,23.1-13.5
		c22.62-4.88,61.35-6.58,79.82,31.56c27,55.74-17.43,117.05-42.9,131.74c-15.75,9.08-43.5,2.4-62.39-4.03
		c-16.16-5.5-33.32-7.38-50.28-5.49c-11.71,1.3-25.76,3.31-40.24,6.38C29.01,203.83,34.35,118.83,34.35,118.83z"></path><g><path fill="#fff" stroke="#000" stroke-linecap="round" stroke-linejoin="round" stroke-miterlimit="10" stroke-width=".316" d="M241.13,22.13h-62.89c-0.93,0-1.69,0.75-1.69,1.69v100.14c0,0.93,0.75,1.69,1.69,1.69h75.95
			c0.93,0,1.69-0.75,1.69-1.69V38.83L241.13,22.13z"></path><polygon points="241.13 22.13 241.13 38.83 255.88 38.83"></polygon><path fill="#fff" stroke="#000" stroke-linecap="round" stroke-linejoin="round" stroke-miterlimit="10" stroke-width=".316" d="M243.86,113.07h-17.09c-1.07,0-1.93-0.86-1.93-1.93V94.04c0-1.07,0.86-1.93,1.93-1.93h17.09
			c1.07,0,1.93,0.86,1.93,1.93v17.09C245.79,112.2,244.93,113.07,243.86,113.07z"></path><g><path d="M235.67,108.14c-0.17,0.28-0.57,0.3-0.78,0.04l-6.21-7.95l0,0l5.88,4.34c0.21,0.15,0.5,0.11,0.65-0.09l12.66-16.26l0,0
				L235.67,108.14z"></path></g><line x1="181.59" x2="213.22" y1="33.88" y2="33.88" fill="none" stroke="#000" stroke-miterlimit="10" stroke-width=".632"></line><line x1="181.59" x2="213.22" y1="47" y2="47" fill="none" stroke="#000" stroke-miterlimit="10" stroke-width=".632"></line><line x1="217.81" x2="249.44" y1="47" y2="47" fill="none" stroke="#000" stroke-miterlimit="10" stroke-width=".632"></line><line x1="217.81" x2="238.11" y1="60.12" y2="60.12" fill="none" stroke="#000" stroke-miterlimit="10" stroke-width=".632"></line><line x1="241.53" x2="249.44" y1="60.12" y2="60.12" fill="none" stroke="#000" stroke-miterlimit="10" stroke-width=".632"></line><line x1="217.81" x2="230.75" y1="73.23" y2="73.23" fill="none" stroke="#000" stroke-miterlimit="10" stroke-width=".632"></line><line x1="233.63" x2="249.44" y1="73.23" y2="73.23" fill="none" stroke="#000" stroke-miterlimit="10" stroke-width=".632"></line><line x1="181.59" x2="213.22" y1="60.12" y2="60.12" fill="none" stroke="#000" stroke-miterlimit="10" stroke-width=".632"></line><line x1="181.59" x2="213.22" y1="73.23" y2="73.23" fill="none" stroke="#000" stroke-miterlimit="10" stroke-width=".632"></line><line x1="181.59" x2="197.41" y1="86.64" y2="86.64" fill="none" stroke="#000" stroke-miterlimit="10" stroke-width=".632"></line><line x1="181.59" x2="209.16" y1="96.26" y2="96.26" fill="none" stroke="#000" stroke-miterlimit="10" stroke-width=".632"></line><line x1="181.59" x2="209.16" y1="105.88" y2="105.88" fill="none" stroke="#000" stroke-miterlimit="10" stroke-width=".632"></line><line x1="181.59" x2="197.41" y1="115.49" y2="115.49" fill="none" stroke="#000" stroke-miterlimit="10" stroke-width=".632"></line></g><g><g><path fill="#fff" stroke="#000" stroke-linecap="round" stroke-linejoin="round" stroke-miterlimit="10" stroke-width=".316" d="M93.3,53.24l5.52-7.42c0.58-0.78,1.64-1.01,2.49-0.56v0c1.02,0.54,1.34,1.85,0.7,2.81l-3.67,5.5
				c0,0,1.48-0.81,2.44,1.02c0,0,0.71,0.94-0.25,2.26c0,0,1.6-0.38,2.18,1.08s-0.24,2.31-0.24,2.31s1.89,0.15,1.28,2.28
				c0,0-0.22,1.1-2.49,2.32c0,0-4.31,3.48-5.62,4.91c-1.32,1.43-5.95,3.17-5.95,3.17v0c-1.17,0.93-2.8,1.02-4.08,0.24l-2.62-1.61
				c-1.68-1.03-2.21-3.22-1.18-4.9l1.43-2.34c0,0,3.9-5.2,4.67-8.38c0.5-2.08,1.57-2.64,2.3-3.14c0.54-0.37,1.25-0.43,1.84-0.15
				L93.3,53.24z"></path><path fill="none" stroke="#000" stroke-linecap="round" stroke-linejoin="round" stroke-miterlimit="10" stroke-width=".316" d="M93.3,53.24l4.18,2.56c0.38,0.23,0.46,0.75,0.15,1.08c-0.94,1.01-3.07,2.67-6.11,1.01"></path><line x1="98.35" x2="96.91" y1="53.57" y2="55.44" fill="none" stroke="#000" stroke-linecap="round" stroke-linejoin="round" stroke-miterlimit="10" stroke-width=".316"></line><path fill="none" stroke="#000" stroke-linecap="round" stroke-linejoin="round" stroke-miterlimit="10" stroke-width=".316" d="M93.08 58.48c0 0 1.29 2.71-.42 5.09M100.54 56.85l-3.35 2.86c-.88.66-2.14.42-2.71-.52l-.27-.6"></path><path fill="none" stroke="#000" stroke-miterlimit="10" stroke-width=".316" d="M102.48,60.24l-2.42,2c-0.82,0.68-2.03,0.56-2.71-0.26v0c-0.67-0.81-0.55-2.01,0.26-2.69l2.72-2.27"></path><path fill="none" stroke="#000" stroke-linecap="round" stroke-linejoin="round" stroke-miterlimit="10" stroke-width=".316" d="M101.84,60.77l-2.07,1.68c-0.59,0.48-0.71,1.33-0.28,1.95v0c0.46,0.66,1.38,0.82,2.03,0.35l0.6-0.43"></path></g><path d="M32.44,66.83c-3.35-6.63,1.2-8.47,2.89-10.75c1.2-1.62,0-9.71,7.83-10.49c8.04-0.79,10.72,4.46,12.27,7.74
			c1.3,2.75,3,3.16,2.33,5.26c-0.68,2.1,1.43,3.09,1.43,3.09c2.6,1.78,1.47,5.17,1.47,5.17l-2.65,8.02H32.34
			C32.34,74.88,34.95,71.18,32.44,66.83z"></path><polygon fill="#fff" stroke="#000" stroke-miterlimit="10" stroke-width=".316" points="45.9 61.43 44.57 71.18 53.11 70.82 53.42 62.58"></polygon><g><path fill="#fff" stroke="#000" stroke-linecap="round" stroke-linejoin="round" stroke-miterlimit="10" stroke-width=".316" d="M99,114.79l6.71-7.22l-6.48-6.09l-6.56,6.66c-3.93-0.77-8.22,1.07-8.22,1.07c-3.26-1.86-7.9-0.98-7.9-0.98
				l-6.69-6.74l-7.47,7.32l7.95,6.02c0.33,3.1,3.69,7.02,3.69,7.02c-0.08,0.08-0.3,0.95,0.27,1.8c0.57,0.85,1.58,0.85,1.58,0.85
				s-0.05,0.78,0.65,1.48c0.7,0.7,2.15,0.43,2.15,0.43c0,0.28,0.27,1,0.88,1.41c0.62,0.42,1.66,0.37,1.66,0.37
				c0,0.3,0.18,0.97,1.13,1.4c1.09,0.5,1.98-0.62,1.98-0.62l1.75,0.52c1.82,0,1.9-1.48,1.9-1.48c2.31,0.17,2.53-1.8,2.53-1.8
				c2.81,0.12,2.73-1.88,2.73-1.88s1.03,0.32,1.71-0.57c0.68-0.88,0.28-1.95,0.28-1.95C99.11,117.93,99,114.79,99,114.79z"></path><path fill="none" stroke="#000" stroke-linecap="round" stroke-linejoin="round" stroke-miterlimit="10" stroke-width=".316" d="M84.45,109.2l-5.71,4.68c-0.74,0.61-0.85,1.71-0.23,2.45h0c0.59,0.71,1.64,0.83,2.38,0.27l3.75-2.87
				l10.59,8.09"></path><line x1="93.24" x2="86.78" y1="124.32" y2="119.72" fill="none" stroke="#000" stroke-linecap="round" stroke-linejoin="round" stroke-miterlimit="10" stroke-width=".316"></line><line x1="90.51" x2="84.89" y1="126.2" y2="122.02" fill="none" stroke="#000" stroke-linecap="round" stroke-linejoin="round" stroke-miterlimit="10" stroke-width=".316"></line><line x1="87.98" x2="83.16" y1="128" y2="124.11" fill="none" stroke="#000" stroke-linecap="round" stroke-linejoin="round" stroke-miterlimit="10" stroke-width=".316"></line><path fill="none" stroke="#000" stroke-linecap="round" stroke-linejoin="round" stroke-miterlimit="10" stroke-width=".316" d="M74.04,121.84l2.86-1.96c0.38-0.26,0.85-0.37,1.3-0.26c0.19,0.04,0.38,0.13,0.52,0.27
				c0.49,0.49,0.3,1.16,0.21,1.39c-0.09,0.22-3.05,3.21-3.05,3.21"></path><path fill="none" stroke="#000" stroke-linecap="round" stroke-linejoin="round" stroke-miterlimit="10" stroke-width=".316" d="M78.68,126.4l2.13-2.72c0.24-0.31,0.36-0.71,0.29-1.1c-0.05-0.27-0.19-0.56-0.51-0.77
				c-0.82-0.53-1.72-0.74-3.48,1.43"></path><path fill="none" stroke="#000" stroke-linecap="round" stroke-linejoin="round" stroke-miterlimit="10" stroke-width=".316" d="M81.22,128.18l1.63-2.36c0.47-0.68,0.34-1.68-0.37-2.11l0,0c-0.61-0.37-1.47-0.17-1.92,0.38l-1.82,2.22"></path><path fill="none" stroke="#000" stroke-linecap="round" stroke-linejoin="round" stroke-miterlimit="10" stroke-width=".316" d="M84.34,128.96c0,0,1.2-1.91,0.67-2.75c-0.52-0.84-1.96-0.9-3.08,0.95"></path></g><path d="M60.68,70.53l8.56,3.07c2.38,1.21,5.29,0.4,6.97-1.73l7.39-8.95l8.52,9.62l-7.04,9.91c-5.49,7.74-13.94,12.67-22.8,9.29
			l-6.59-2.51L60.68,70.53z"></path><path fill="#fff" stroke="#000" stroke-linecap="round" stroke-linejoin="round" stroke-miterlimit="10" stroke-width=".316" d="M66.78,142.41l-0.01,47.9c0,0-7.2,2.84-16.33,0.98l-3.09-47.12L66.78,142.41z"></path><path fill="#fff" stroke="#000" stroke-linecap="round" stroke-linejoin="round" stroke-miterlimit="10" stroke-width=".316" d="M51.76,143.46l-1.29,47.9c0,0-7.2,2.84-16.33,0.98l-3.09-47.12L51.76,143.46z"></path><path fill="#fff" stroke="#000" stroke-linecap="round" stroke-linejoin="round" stroke-miterlimit="10" stroke-width=".316" d="M69.24,154.04c0,0-16.79,3.63-40.05-0.12c0,0-1.55-31.13,4.46-46.47l28.74,0.39
			C62.39,107.84,68.84,123.53,69.24,154.04z"></path><g><path d="M53.18,52.54c0,0-5.96-4.82-8.17,0.12c-2.53,5.67,5.16,7.36,5.16,7.36l1.98-1.4L53.18,52.54z"></path></g><path fill="#fff" stroke="#000" stroke-miterlimit="10" stroke-width=".316" d="M44.49,58.66c1.28,4.22,5.9,7.23,8.53,6c3.77-1.76,3.23-4.79,2.71-9.17c-0.72-6.05-4.57-6.96-7.34-6.12
			C45.61,50.22,43.21,54.44,44.49,58.66z"></path><path d="M65.94,117.69c-0.59,3.13-35.77-0.71-35.77-0.71c-3.69-13.86-3.63-27.11-3.64-35.5c-0.01-8.01,6.51-14.6,14.52-14.47
			c0.35,0.01,0.68,0.02,0.99,0.06l2.34,0.37c6.28,4.26,8.89,1.91,8.89,1.91c8.96-0.49,11.36,4.63,11.36,4.63
			S72.31,83.91,65.94,117.69z"></path><ellipse cx="44.77" cy="58.59" fill="#fff" rx="2.49" ry="3.12" transform="rotate(-5.674 44.794 58.61)"></ellipse><path fill="none" stroke="#000" stroke-linecap="round" stroke-linejoin="round" stroke-miterlimit="10" stroke-width=".632" d="M44.17,57.17c0,0,1.34,0.47,1.41,2.13c0,0-1.27-0.52-1.61,0.69"></path><g><path fill="#ff7f6e" d="M46.84,196.68h35.83l0,0c0-1.96-1.05-3.77-2.76-4.74c-4.49-2.53-12.87-7.23-13.1-7.34
				c-0.31-0.15-0.73,0.1-1.03,0.42c0,0-1.25,1.39-2.44,1.92c0,0,0,0,0,0c-0.32,0.14-0.69,0.28-1.12,0.4
				c-1.56,0.45-3.84,0.77-6.93,0.74c-3.46-0.03-5.82-0.83-6.13-0.85c-0.31-0.01-0.88,0.57-0.96,1.01c-0.02,0.1-0.09,0.57-0.21,1.24
				C47.6,191.84,46.84,196.68,46.84,196.68z"></path><g><path d="M62.2,187.34l10.23,7.11c0.08,0.06,0.18,0.09,0.28,0.09c0.15,0,0.3-0.07,0.4-0.21c0.15-0.22,0.1-0.52-0.12-0.68
					l-9.66-6.71C63,187.08,62.63,187.22,62.2,187.34z"></path></g><rect width="35.83" height="3.6" x="46.84" y="196.68" transform="rotate(-180 64.754 198.475)"></rect></g><g><path fill="#ff7f6e" d="M31.48,198.85H67.3v0c0-1.96-1.05-3.77-2.76-4.74c-4.49-2.53-12.87-7.23-13.1-7.34
				c-0.31-0.15-0.73,0.1-1.03,0.42c0,0-1.25,1.39-2.44,1.92c0,0,0,0,0,0c-0.32,0.14-0.69,0.28-1.12,0.4
				c-1.56,0.45-3.84,0.77-6.93,0.74c-3.46-0.03-5.82-0.83-6.13-0.85c-0.31-0.01-0.88,0.57-0.96,1.01c-0.02,0.1-0.09,0.57-0.21,1.24
				C32.23,194.01,31.48,198.85,31.48,198.85z"></path><g><path d="M46.84,189.52l10.23,7.11c0.08,0.06,0.18,0.09,0.28,0.09c0.15,0,0.3-0.07,0.4-0.21c0.15-0.22,0.1-0.52-0.12-0.68
					l-9.66-6.71C47.64,189.26,47.27,189.4,46.84,189.52z"></path></g><rect width="35.83" height="3.55" x="31.47" y="198.85" transform="rotate(-180 49.39 200.63)"></rect></g><path d="M41.85 47.52c0 0 5.72 7.7 15.05 7.36 2.33-3.18.69-9.85-6.76-10.68C50.14 44.2 45.95 43.81 41.85 47.52zM155.86 59.27c-2.34-5.43-11.4-5.65-11.4-5.65l-5.01 14.19 11.04 2.91C150.48 70.72 158.2 64.7 155.86 59.27z"></path><path d="M131.1,63.21l10.91-0.92l14.28,0.09l-14.02,26.58l-11.94-24.39C130.04,63.97,130.44,63.27,131.1,63.21z"></path><rect width="15.34" height="12.63" x="130.99" y="175.88" fill="#fff" stroke="#000" stroke-linecap="round" stroke-linejoin="round" stroke-miterlimit="10" stroke-width=".316"></rect><g><path fill="#ff7f6e" d="M147.48,194.62h-30.38l0,0c0-1.66,0.89-3.2,2.34-4.02c3.8-2.15,10.91-6.13,11.11-6.23
				c0.26-0.13,0.62,0.08,0.87,0.36c0,0,1.06,1.18,2.07,1.63c0,0,0,0,0,0c0.27,0.12,0.59,0.23,0.95,0.34
				c1.32,0.39,3.26,0.65,5.88,0.62c2.94-0.03,4.93-0.71,5.2-0.72c0.26-0.01,0.74,0.48,0.82,0.86c0.02,0.08,0.08,0.48,0.17,1.05
				C146.83,190.51,147.48,194.62,147.48,194.62z"></path><g><path d="M134.45,186.7l-8.67,6.03c-0.07,0.05-0.15,0.07-0.23,0.07c-0.13,0-0.26-0.06-0.34-0.18c-0.13-0.19-0.08-0.44,0.1-0.57
					l8.19-5.69C133.77,186.48,134.09,186.6,134.45,186.7z"></path></g><rect width="30.38" height="3.53" x="117.09" y="194.62"></rect></g><rect width="15.34" height="14.1" x="142.96" y="175.88" fill="#fff" stroke="#000" stroke-linecap="round" stroke-linejoin="round" stroke-miterlimit="10" stroke-width=".316"></rect><g><path fill="#fff" stroke="#000" stroke-linecap="round" stroke-linejoin="round" stroke-miterlimit="10" stroke-width=".316" d="M146.82,103.79c0,0,2.43,10.45,1.96,17.27c-0.47,6.82-1.27,22.28-1.14,25c0.12,2.73,0.84,34.35,0.84,34.35
				s-4.81,0.03-10.01,0c-5.21-0.03-8.11-0.66-8.11-0.66s-3.54-24.55-3.24-37.19c0.36-15.52,3.72-38.4,3.72-38.4L146.82,103.79z"></path></g><path fill="#fff" stroke="#000" stroke-linecap="round" stroke-linejoin="round" stroke-miterlimit="10" stroke-width=".316" d="M158.88,147.58c-0.12-2.73,0.69-18.19,1.16-25.01c0.47-6.82-1.88-17.26-1.88-17.26l-24.28,0.2l5.51,28.47
			c-0.27,3.52-0.47,6.98-0.55,10.15c-0.31,12.64,3.1,37.18,3.1,37.18s2.83,0.62,7.92,0.64c5.08,0.02,9.78-1.48,9.78-1.48
			S158.99,150.31,158.88,147.58z"></path><g><path fill="#ff7f6e" d="M160.09,196.46h-30.38l0,0c0-1.66,0.89-3.2,2.34-4.02c3.8-2.15,10.91-6.13,11.11-6.23
				c0.26-0.13,0.62,0.08,0.87,0.36c0,0,1.06,1.18,2.07,1.63c0,0,0,0,0,0c0.27,0.12,0.59,0.23,0.95,0.34
				c1.32,0.39,3.26,0.65,5.88,0.62c2.94-0.03,4.93-0.71,5.2-0.72c0.26-0.01,0.74,0.48,0.82,0.86c0.02,0.08,0.08,0.48,0.17,1.05
				C159.45,192.36,160.09,196.46,160.09,196.46z"></path><g><path d="M147.07,188.55l-8.67,6.03c-0.07,0.05-0.15,0.07-0.23,0.07c-0.13,0-0.26-0.06-0.34-0.18c-0.13-0.19-0.08-0.44,0.1-0.57
					l8.19-5.69C146.39,188.33,146.7,188.45,147.07,188.55z"></path></g><rect width="30.38" height="3.36" x="129.71" y="196.46"></rect></g><g><path d="M144.02,48.63c0,0,6.07-4.91,8.32,0.12c2.58,5.77-5.25,7.49-5.25,7.49l-2.02-1.43L144.02,48.63z"></path></g><polygon fill="#fff" stroke="#000" stroke-miterlimit="10" stroke-width=".316" points="146.29 64.35 139.44 67.41 137.94 59.03 145.44 57.11"></polygon><line x1="129.2" x2="129.08" y1="100.12" y2="84.82" fill="none" stroke="#000" stroke-linecap="round" stroke-linejoin="round" stroke-miterlimit="10" stroke-width=".632"></line><g><g><g><polygon fill="#ff7f6e" points="145.94 62.29 141.39 66.54 138.68 62.55 135.86 62.81 138.52 68.79 141.26 67.04 144.1 68.98 148.63 62.29"></polygon></g></g></g><path fill="#fff" stroke="#000" stroke-miterlimit="10" stroke-width=".316" d="M146.59,54.16c-0.87,4.41-5.25,7.92-8.04,6.94c-3.99-1.41-3.76-4.52-3.67-9.01c0.12-6.21,3.92-7.51,6.82-6.94
			C144.6,45.72,147.46,49.76,146.59,54.16z"></path><path d="M147.6,48.09c0,0-0.13-5.11-6.42-4.81c-7.13,0.33-6.41,6.97-6.41,6.97l2.28-3.54c0,0-0.33,1.84,0.81,3.11
			c1.67,1.86,5.03,2.97,5.03,2.97l0.97,1.81l3.54,0.48c0,0,1.59-0.83,1.86-3.55C149.53,48.79,147.6,48.09,147.6,48.09z"></path><ellipse cx="146.29" cy="54.12" fill="#fff" rx="2.54" ry="3.18"></ellipse><g><path d="M147.37,55.78c-0.1,0-0.19-0.06-0.21-0.16c-0.08-0.29-0.22-0.47-0.42-0.57c-0.4-0.19-0.92,0.01-0.92,0.01
				c-0.07,0.03-0.15,0.02-0.21-0.02c-0.06-0.04-0.1-0.12-0.09-0.19c0.07-1.82,1.52-2.35,1.58-2.37c0.12-0.04,0.24,0.02,0.28,0.14
				c0.04,0.12-0.02,0.24-0.14,0.28c-0.05,0.02-1.06,0.4-1.25,1.66c0.26-0.05,0.62-0.07,0.95,0.09c0.32,0.16,0.54,0.44,0.65,0.86
				c0.03,0.12-0.04,0.24-0.16,0.27C147.41,55.78,147.39,55.78,147.37,55.78z"></path></g><path d="M30.8,86.19c-3.41-3-3.74-8.2-0.74-11.61c3-3.41,8.2-3.74,11.61-0.74l35.98,31.5c0,0-3.38,6.72-10.87,12.35L30.8,86.19z"></path><line x1="65.53" x2="42.13" y1="116.59" y2="96.1" fill="none" stroke="#fff" stroke-linecap="round" stroke-linejoin="round" stroke-miterlimit="10" stroke-width=".316"></line><line x1="47.51" x2="68.47" y1="78.94" y2="97.3" fill="none" stroke="#fff" stroke-linecap="round" stroke-linejoin="round" stroke-miterlimit="10" stroke-width=".316"></line><path fill="#ff7f6e" d="M162.2,106.27c0,0,0.26,9.09-0.42,16.84c0,0-12.12,2.8-36.43-0.26c0,0-3.1-14.04,0.41-31.9l-24.49,25.4
			l-10-10.47l35.38-40.35c1.11-1.35,2.71-2.17,4.45-2.32c0.41-0.04,0.37-0.03,0.9-0.08l10.01,22.18l12.41-22.94
			c4.33,0.04,5.45,1.13,6.39,1.74c1.82,1.18,8.93,17.69,9.97,26.52c1.04,8.83,0,14.55-6.3,15.6l-2.29,0.05"></path><g><path fill="#fff" stroke="#000" stroke-linecap="round" stroke-linejoin="round" stroke-miterlimit="10" stroke-width=".316" d="M146.52,95.78c0,0-5.69-5.89-12.12-6.38c0,0-2.84,0.01-0.86,3.19c0,0-5.11,0.18-7.26,2.7
				c-2.15,2.52,0.55,2.96,0.55,2.96l-1.48,1.86c-0.54,0.68-0.53,1.65,0.03,2.32l0.05,0.06c0.41,0.49,1.1,0.61,1.65,0.29l0,0l0,0
				c-0.37,0.65-0.25,1.46,0.28,1.97l0.02,0.02c0.51,0.5,1.29,0.61,1.92,0.26l0.26-0.14l-0.28,0.52c-0.33,0.6-0.21,1.34,0.29,1.81
				l0,0c0.47,0.44,1.18,0.53,1.75,0.21l0.62-0.35c0,0,2.66-2.54,6.21-0.93c0.81,0.37,1.7,0.54,2.59,0.52l0.78-0.02
				c2.59-0.07,5.1-0.96,7.16-2.52v0L146.52,95.78z"></path><path fill="none" stroke="#000" stroke-linecap="round" stroke-linejoin="round" stroke-miterlimit="10" stroke-width=".316" d="M133.54 92.59c0 0 2.74-.41 5.41.78M126.82 98.25c0 0 3.2-2.76 8.14-2.4M127.08 102.78c0 0 3.38-4.37 9.3-4.03M129.56 104.89c0 0 3.41-3.69 8.69-2.91"></path></g><path fill="#ff7f6e" d="M149.73,106.32h-3.04c-0.67,0-1.22-0.55-1.22-1.22v-9.52c0-0.67,0.55-1.22,1.22-1.22h3.04
			c0.67,0,1.22,0.55,1.22,1.22v9.52C150.95,105.77,150.4,106.32,149.73,106.32z"></path><g><path d="M162.2,106.57h-16.44c-0.08,0-0.14-0.06-0.15-0.13c-0.01-0.07-0.79-6.77,0-12.57c0.01-0.08,0.07-0.13,0.15-0.13h9.48
				V85.5c0-0.08,0.07-0.15,0.15-0.15s0.15,0.07,0.15,0.15v8.4c0,0.08-0.07,0.15-0.15,0.15h-9.5c-0.7,5.28-0.1,11.26,0,12.22h16.31
				c0.08,0,0.15,0.07,0.15,0.15S162.29,106.57,162.2,106.57z"></path></g></g></g></svg>