<svg xmlns="http://www.w3.org/2000/svg" width="3000" height="3000" fill="none" viewBox="0 0 3000 3000" id="businessman-is-doing-investment-planning"><path fill="#203752" d="M401.133 528.985C406.934 718.946 414.023 908.848 422.285 1098.75C743.027 1075.72 1065.23 1112.05 1386.68 1102.27C1382.64 905.919 1382.87 709.454 1387.32 513.106C1061.84 476.895 731.953 487.969 401.133 528.985Z"></path><path fill="#1B81A6" d="M1409.77 429.849C1414.22 463.364 1415.92 497.231 1414.86 531.04 1414.75 533.911 1414.63 536.958 1412.99 539.243 1410.18 543.227 1404.55 543.52 1399.69 543.462 1057.38 538.423 714.961 541.587 372.949 556.645 369.668 525.298 366.387 493.95 360.117 469.399 707.754 438.286 1057.21 427.681 1409.77 429.849zM1431.21 1040.69C1435.66 1074.2 1437.36 1108.07 1436.31 1141.88 1436.19 1144.75 1436.07 1147.8 1434.43 1150.08 1431.62 1154.07 1426 1154.36 1421.13 1154.3 1078.83 1149.26 736.407 1152.43 394.395 1167.49 391.114 1136.14 387.833 1104.79 381.563 1080.24 729.2 1049.13 1078.65 1038.52 1431.21 1040.69z"></path><path fill="#FFC5A6" d="M1803.23 1943.56C1825.02 1913.91 1849.16 1882.56 1884.14 1871.25 1910.22 1862.82 1938.4 1866.86 1965.82 1866.21 2000.04 1865.45 2034.03 1857.13 2064.79 1842.07 2079.38 1834.93 2098.48 1826.78 2110.08 1838.09 2120.92 1848.69 2115 1867.09 2106.86 1879.81 2088.4 1908.64 2061.51 1932.02 2030.33 1946.31 2000.33 1960.08 1966.82 1965.53 1938.05 1981.76 1916.6 1993.89 1897.68 2012.05 1873.48 2016.74 1852.44 2020.84 1829.53 2013.28 1815.06 1997.46 1800.71 1981.76 1793.32 1957.03 1803.23 1943.56zM1009.69 1775.86C996.445 1795.43 967.852 1794.14 944.531 1790.45 897.598 1783.12 850.84 1774.92 804.258 1765.84 793.242 1763.73 781.23 1760.86 774.609 1751.77 769.277 1744.51 768.75 1734.9 768.457 1725.88 766.758 1677.19 765.117 1628.44 763.477 1579.74 762.891 1563.16 762.305 1546.58 761.719 1530 826.465 1501.52 901.816 1488.16 977.695 1483.53 981.738 1483.3 986.309 1483.18 989.473 1485.7 992.988 1488.51 993.633 1493.55 994.043 1498.01 998.437 1546.29 1002.77 1594.57 1007.17 1642.85 1009.92 1673.2 1012.68 1703.49 1015.43 1733.85 1016.78 1748.32 1017.71 1763.96 1009.69 1775.86z"></path><path fill="#FF9F6B" d="M1007.23 1642.98C1006.17 1643.15 1005.12 1643.33 1004.06 1643.5 937.267 1653.05 831.388 1650.18 762.892 1565.22 762.306 1548.64 762.247 1546.71 761.661 1530.12 826.407 1501.65 901.759 1488.29 977.638 1483.66 981.681 1483.42 986.251 1483.31 989.415 1485.83 992.931 1488.64 993.575 1493.68 993.985 1498.13 998.497 1546.41 1002.89 1594.69 1007.23 1642.98zM705.647 1345.66C689.709 1350.17 678.694 1364.65 670.725 1379.12 667.151 1385.62 663.869 1392.48 662.522 1399.8 658.127 1423.88 676.35 1447.61 698.733 1457.57 721.115 1467.54 746.604 1467.01 771.037 1465.84 853.186 1461.91 935.041 1453.06 1016.13 1439.41 1026.8 1437.59 1037.64 1435.66 1047.37 1430.86 1075.61 1416.85 1087.38 1377.77 1072.74 1349.82 1062.31 1329.9 1041.51 1317.07 1019.83 1311.27 998.147 1305.47 975.295 1305.76 952.854 1306.46 869.416 1308.81 787.209 1322.46 705.647 1345.66z"></path><path fill="#FFC5A6" d="M708.574 1323.17C706.113 1366.06 707.403 1409.13 712.5 1451.78C717.188 1491.04 726.621 1532.76 755.86 1559.36C764.531 1567.27 774.668 1573.48 785.156 1578.7C848.613 1610.45 928.77 1605.82 988.242 1567.04C994.571 1562.88 1000.72 1558.36 1006.17 1553.03C1022.75 1536.8 1031.72 1514.01 1035.29 1491.1C1038.87 1468.13 1037.46 1444.75 1036.05 1421.61C1033.83 1384.98 1031.66 1348.3 1027.32 1311.86C1026.21 1302.37 1024.86 1292.64 1020.23 1284.26C1012.79 1270.79 998.145 1263.11 984.024 1257.13C945.352 1240.79 902.989 1231.29 861.27 1235.98C840.703 1238.27 820.664 1244.01 800.801 1249.63C787.09 1253.56 773.203 1257.54 760.957 1264.87C747.246 1273.13 736.348 1285.2 725.625 1297.09C718.594 1304.77 709.16 1312.91 708.574 1323.17Z"></path><path fill="#203752" d="M1034.41 1396C1031.02 1392.07 1029.26 1387.03 1027.56 1382.17C1016.48 1349 1009.45 1314.55 1006.7 1279.69C983.847 1296.8 955.664 1308.34 926.66 1314.08C897.656 1319.82 867.714 1319.82 838.3 1316.6C828.398 1315.55 818.496 1314.08 809.062 1310.86C792.363 1305.23 777.89 1294.45 764.648 1282.85C760.898 1331.83 740.332 1380.12 707.871 1418.55C681.269 1403.08 667.089 1372.5 660.82 1342.38C653.789 1308.81 654.785 1273.24 665.918 1240.84C677.05 1208.44 698.613 1179.2 727.675 1160.98C739.453 1153.59 753.046 1147.85 767.167 1151.13C783.222 1122.6 816.503 1109 847.968 1100.04C884.531 1089.61 1002.83 1080.23 1062.95 1162.15C1091.78 1201.46 1086.09 1259 1079.65 1290.88C1072.09 1328.67 1058.91 1366.41 1034.41 1396Z"></path><path fill="#203752" d="M770.506 1343.73C794.998 1333.65 822.654 1332.95 847.791 1340.98 854.998 1343.26 857.987 1331.95 850.838 1329.67 822.537 1320.64 792.069 1322.29 764.647 1333.59 761.717 1334.82 761.072 1339.1 762.479 1341.62 764.237 1344.61 767.635 1344.9 770.506 1343.73zM902.815 1341.92C929.182 1332.95 957.483 1333.25 983.674 1342.68 990.764 1345.26 993.752 1333.89 986.721 1331.37 958.889 1321.35 927.893 1321.06 899.885 1330.61 892.737 1332.95 895.666 1344.32 902.815 1341.92zM805.427 1368.57C805.134 1368.63 804.899 1368.69 804.607 1368.75 803.903 1368.98 803.142 1369.27 802.497 1369.68 801.091 1370.56 800.212 1371.5 799.274 1372.85 799.099 1373.08 798.981 1373.32 798.864 1373.55 798.571 1374.2 798.22 1374.96 798.044 1375.66 797.751 1377.18 797.692 1378.53 798.044 1380.11 798.63 1382.63 800.388 1384.8 802.556 1386.15 803.142 1386.5 803.845 1386.74 804.489 1386.97 805.251 1387.2 806.071 1387.32 806.833 1387.38 807.185 1387.44 807.478 1387.44 807.829 1387.38 808.649 1387.32 809.47 1387.26 810.231 1387.03 810.993 1386.79 811.755 1386.44 812.458 1386.15 812.751 1386.03 812.985 1385.86 813.278 1385.68 814.157 1385.09 815.095 1384.45 815.739 1383.63 816.208 1383.04 816.677 1382.46 817.087 1381.81 817.497 1381.17 817.731 1380.41 818.024 1379.7 818.142 1379.47 818.2 1379.18 818.259 1378.88 818.435 1378.12 818.552 1377.36 818.552 1376.6 818.552 1374.96 818.142 1373.73 817.497 1372.2 817.38 1371.97 817.263 1371.74 817.087 1371.5 816.677 1370.86 816.208 1370.21 815.622 1369.68 814.509 1368.57 813.278 1367.93 811.872 1367.4 810.935 1367.05 809.938 1366.93 808.942 1366.99 807.419 1367.11 806.774 1367.28 805.368 1367.93 804.899 1368.16 804.548 1368.45 804.138 1368.81 803.728 1369.16 803.317 1369.39 803.024 1369.8 802.556 1370.39 802.087 1370.97 801.735 1371.62 801.442 1372.26 801.091 1372.97 800.915 1373.67 800.798 1374.25 800.739 1374.84 800.681 1375.43 800.681 1375.54 800.681 1375.72 800.681 1375.84 800.681 1376.42 800.798 1377.01 800.915 1377.59 800.915 1377.71 800.974 1377.83 801.032 1378 801.208 1378.59 801.442 1379.18 801.735 1379.76 801.794 1379.88 801.853 1380 801.97 1380.11 802.321 1380.82 802.849 1381.4 803.552 1381.81 804.138 1382.34 804.782 1382.69 805.544 1382.87 806.95 1383.22 808.767 1383.04 809.997 1382.28 811.286 1381.46 812.399 1380.23 812.751 1378.71 812.81 1378.24 812.868 1377.71 812.927 1377.24 812.927 1376.19 812.692 1375.19 812.165 1374.25 812.048 1374.08 811.931 1373.9 811.872 1373.73 812.048 1374.2 812.282 1374.72 812.458 1375.19 812.399 1375.02 812.341 1374.9 812.341 1374.72 812.399 1375.25 812.458 1375.72 812.517 1376.25 812.517 1376.01 812.517 1375.78 812.517 1375.54 812.458 1376.01 812.399 1376.54 812.341 1377.01 812.399 1376.77 812.458 1376.54 812.517 1376.31 812.341 1376.77 812.165 1377.24 811.931 1377.71 812.048 1377.48 812.165 1377.18 812.341 1377.01 812.048 1377.42 811.755 1377.83 811.403 1378.24 811.579 1378.06 811.755 1377.89 811.931 1377.71 811.521 1378 811.11 1378.36 810.7 1378.65 810.876 1378.47 811.11 1378.36 811.345 1378.3 810.876 1378.47 810.349 1378.71 809.88 1378.88 810.056 1378.82 810.29 1378.77 810.466 1378.71 809.939 1378.77 809.47 1378.82 808.942 1378.88 809.177 1378.88 809.411 1378.88 809.645 1378.88 809.177 1378.82 808.649 1378.77 808.181 1378.71 808.415 1378.77 808.649 1378.82 808.884 1378.88 808.415 1378.71 807.946 1378.53 807.478 1378.3 807.771 1378.41 808.005 1378.53 808.239 1378.71 807.829 1378.41 807.419 1378.12 807.009 1377.77 807.302 1378 807.595 1378.24 807.829 1378.59 807.536 1378.18 807.185 1377.77 806.892 1377.36 807.067 1377.65 807.243 1377.95 807.419 1378.24 807.243 1377.77 807.009 1377.24 806.833 1376.77 806.95 1377.07 807.067 1377.42 807.067 1377.77 807.009 1377.24 806.95 1376.77 806.892 1376.25 806.95 1376.54 806.892 1376.83 806.892 1377.13 806.95 1376.66 807.009 1376.13 807.067 1375.66 807.009 1376.07 806.892 1376.42 806.774 1376.77 806.95 1376.31 807.126 1375.84 807.36 1375.37 807.185 1375.78 806.95 1376.13 806.716 1376.48 807.009 1376.07 807.302 1375.66 807.653 1375.25 807.36 1375.66 807.009 1375.95 806.657 1376.31 807.067 1376.01 807.478 1375.66 807.888 1375.37 807.478 1375.72 807.009 1375.95 806.481 1376.19 806.95 1376.01 807.478 1375.78 807.946 1375.6 807.536 1375.78 807.067 1375.9 806.599 1375.95 807.126 1375.9 807.595 1375.84 808.122 1375.78 807.771 1375.84 807.419 1375.84 807.067 1375.78 807.536 1375.84 808.064 1375.9 808.532 1375.95 808.181 1375.9 807.888 1375.84 807.536 1375.72 808.005 1375.9 808.474 1376.07 808.942 1376.31 808.649 1376.19 808.415 1376.01 808.181 1375.84 808.591 1376.13 809.001 1376.42 809.411 1376.77 809.118 1376.54 808.884 1376.31 808.708 1376.07 809.001 1376.48 809.353 1376.89 809.645 1377.3 809.47 1377.01 809.294 1376.72 809.118 1376.42 809.294 1376.89 809.528 1377.42 809.704 1377.89 809.587 1377.59 809.47 1377.24 809.47 1376.89 809.528 1377.42 809.587 1377.89 809.645 1378.41 809.587 1378.12 809.587 1377.83 809.645 1377.54 809.587 1378 809.528 1378.53 809.47 1379 809.528 1378.71 809.587 1378.41 809.704 1378.18 809.528 1378.65 809.353 1379.12 809.118 1379.59 809.235 1379.29 809.353 1379.06 809.528 1378.82 809.235 1379.24 808.942 1379.65 808.591 1380.06 808.825 1379.76 809.06 1379.47 809.411 1379.24 809.001 1379.53 808.591 1379.88 808.181 1380.17 808.474 1380 808.767 1379.82 809.06 1379.7 808.591 1379.88 808.064 1380.11 807.595 1380.29 807.888 1380.17 808.181 1380.11 808.474 1380.06 809.294 1379.88 809.939 1379.53 810.524 1379 811.169 1378.59 811.696 1378 812.048 1377.3 812.751 1376.07 813.044 1374.31 812.634 1372.91 812.165 1371.44 811.286 1370.04 809.88 1369.27 809.411 1369.1 808.942 1368.92 808.474 1368.69 807.419 1368.34 806.423 1368.34 805.427 1368.57zM943.186 1364.48C942.6 1364.59 942.014 1364.77 941.487 1364.94 940.784 1365.24 940.022 1365.47 939.319 1365.88 938.616 1366.23 938.03 1366.76 937.444 1367.23 936.623 1367.87 935.979 1368.75 935.51 1369.63 934.866 1370.98 934.397 1372.44 934.514 1373.91 934.573 1374.55 934.631 1375.43 934.866 1376.14 935.1 1376.84 935.393 1377.6 935.803 1378.25 936.741 1379.65 937.62 1380.53 939.026 1381.47 939.26 1381.64 939.495 1381.76 939.788 1381.88 940.491 1382.17 941.135 1382.52 941.897 1382.64 943.42 1382.93 944.885 1382.99 946.409 1382.52 947.17 1382.29 947.873 1382 948.577 1381.64 948.87 1381.53 949.104 1381.35 949.338 1381.18 949.924 1380.71 950.569 1380.3 951.155 1379.71 951.682 1379.18 952.209 1378.48 952.62 1377.84 953.264 1376.96 953.616 1375.96 953.967 1374.91 954.084 1374.61 954.143 1374.38 954.202 1374.09 954.319 1373.32 954.495 1372.5 954.436 1371.74 954.377 1370.16 954.084 1368.69 953.264 1367.29 952.913 1366.64 952.444 1366 951.858 1365.47 951.448 1365.06 950.92 1364.65 950.393 1364.36 950.276 1364.3 950.159 1364.24 949.983 1364.18 948.694 1363.6 948.049 1363.42 946.584 1363.3 945.881 1363.25 945.061 1363.36 944.358 1363.54 943.889 1363.66 943.42 1363.83 942.952 1364.01 942.424 1364.24 941.955 1364.42 941.487 1364.71 940.901 1365.12 940.139 1365.65 939.612 1366.23 939.202 1366.7 938.85 1367.17 938.498 1367.7 938.381 1367.82 938.323 1367.99 938.205 1368.11 937.385 1369.52 937.092 1370.92 936.975 1372.5 936.916 1373.27 937.092 1374.03 937.209 1374.79 937.268 1375.32 937.502 1375.78 937.737 1376.31 938.205 1377.43 938.498 1377.95 939.377 1378.89 939.495 1379.01 939.553 1379.07 939.67 1379.18 940.139 1379.59 940.666 1380 941.194 1380.3 942.483 1381 944.123 1381.23 945.588 1380.88 946.409 1380.71 947.053 1380.36 947.639 1379.83 948.284 1379.42 948.811 1378.83 949.163 1378.13 949.866 1376.78 950.217 1375.2 949.748 1373.73 949.28 1372.21 948.401 1370.92 946.995 1370.1 946.877 1370.04 946.76 1369.98 946.643 1369.87 947.053 1370.16 947.463 1370.45 947.873 1370.8 947.756 1370.69 947.639 1370.57 947.522 1370.45 947.815 1370.86 948.166 1371.27 948.459 1371.68 948.342 1371.51 948.225 1371.33 948.108 1371.1 948.284 1371.57 948.518 1372.09 948.694 1372.56 948.577 1372.27 948.518 1371.98 948.459 1371.68 948.518 1372.21 948.577 1372.68 948.635 1373.21 948.577 1372.91 948.635 1372.62 948.635 1372.27 948.577 1372.74 948.518 1373.27 948.459 1373.73 948.518 1373.38 948.577 1373.09 948.694 1372.74 948.518 1373.21 948.342 1373.68 948.108 1374.14 948.225 1373.85 948.401 1373.62 948.577 1373.32 948.284 1373.73 947.991 1374.14 947.639 1374.55 947.873 1374.26 948.108 1374.03 948.401 1373.79 947.991 1374.09 947.58 1374.44 947.17 1374.73 947.405 1374.55 947.698 1374.38 947.991 1374.26 947.522 1374.44 946.995 1374.67 946.526 1374.85 946.76 1374.73 946.995 1374.67 947.287 1374.61 946.76 1374.67 946.291 1374.73 945.764 1374.79 945.998 1374.79 946.233 1374.79 946.409 1374.79 945.94 1374.73 945.413 1374.67 944.944 1374.61 945.12 1374.61 945.237 1374.67 945.413 1374.73 944.944 1374.55 944.475 1374.38 944.006 1374.14 944.182 1374.2 944.358 1374.32 944.534 1374.44 944.123 1374.14 943.713 1373.85 943.303 1373.5 943.42 1373.62 943.596 1373.73 943.655 1373.91 943.362 1373.5 943.01 1373.09 942.717 1372.68 942.834 1372.86 942.952 1373.03 943.01 1373.21 942.834 1372.74 942.6 1372.21 942.424 1371.74 942.541 1372.03 942.6 1372.27 942.659 1372.62 942.6 1372.09 942.541 1371.62 942.483 1371.1 942.541 1371.45 942.483 1371.8 942.483 1372.09 942.541 1371.62 942.6 1371.1 942.659 1370.63 942.6 1371.1 942.483 1371.51 942.307 1371.92 942.483 1371.45 942.659 1370.98 942.893 1370.51 942.717 1370.98 942.424 1371.39 942.131 1371.8 942.424 1371.39 942.717 1370.98 943.069 1370.57 942.776 1370.98 942.424 1371.33 942.014 1371.62 942.424 1371.33 942.834 1370.98 943.245 1370.69 942.893 1370.92 942.541 1371.16 942.19 1371.27 942.659 1371.1 943.186 1370.86 943.655 1370.69 943.362 1370.8 943.01 1370.92 942.717 1370.92 943.245 1370.86 943.713 1370.8 944.241 1370.75 943.948 1370.8 943.655 1370.8 943.362 1370.75 943.83 1370.8 944.358 1370.86 944.827 1370.92 944.534 1370.86 944.241 1370.8 944.006 1370.69 944.475 1370.86 944.944 1371.04 945.413 1371.27 945.12 1371.16 944.827 1370.98 944.592 1370.8 945.002 1371.1 945.413 1371.39 945.823 1371.74 945.53 1371.51 945.295 1371.27 945.061 1370.98 945.354 1371.39 945.705 1371.8 945.998 1372.21 945.823 1371.98 945.647 1371.68 945.53 1371.39 945.705 1371.86 945.94 1372.39 946.116 1372.86 945.998 1372.62 945.94 1372.33 945.881 1372.03 945.94 1372.56 945.998 1373.03 946.057 1373.56 946.057 1373.32 946.057 1373.15 946.057 1372.97 945.998 1373.44 945.94 1373.97 945.881 1374.44 945.94 1374.2 945.998 1373.97 946.057 1373.73 945.881 1374.2 945.705 1374.67 945.471 1375.14 945.588 1374.91 945.705 1374.73 945.823 1374.5 945.53 1374.91 945.237 1375.32 944.885 1375.73 945.061 1375.49 945.295 1375.26 945.53 1375.08 945.12 1375.37 944.709 1375.73 944.299 1376.02 944.709 1375.73 945.12 1375.49 945.53 1375.32 945.061 1375.49 944.534 1375.73 944.065 1375.9 944.651 1375.67 945.237 1375.49 945.881 1375.37 946.702 1375.2 947.346 1374.85 947.932 1374.32 948.577 1373.91 949.104 1373.32 949.455 1372.62 949.866 1371.98 950.1 1371.27 950.1 1370.51 950.276 1369.75 950.217 1368.99 949.983 1368.28 949.514 1366.82 948.635 1365.41 947.229 1364.65 946.76 1364.48 946.291 1364.3 945.823 1364.07 945.178 1364.24 944.182 1364.24 943.186 1364.48zM835.782 1505.15C872.052 1519.16 913.536 1503.87 932.638 1470.23 936.329 1463.67 926.192 1457.87 922.442 1464.43 905.743 1493.9 870.294 1506.03 838.77 1493.85 831.798 1491.09 828.809 1502.46 835.782 1505.15z"></path><path fill="#31DECD" d="M1836.09 1866.97C1836.09 1866.97 1622.87 2052.89 1524.78 2023.88C1447.85 2001.15 1434.14 1777.5 1216.05 1694.64C1011.91 1617.07 867.362 1694.94 867.362 1694.94L738.455 1673.26C738.455 1673.26 529.979 1679.41 433.182 1755.17C336.385 1830.93 229.334 2103.45 237.889 2270.8C246.444 2438.14 333.631 2494.21 542.694 2431.46C542.694 2431.46 544.745 2509.62 549.901 2538.69C549.901 2538.69 883.827 2579.82 1250.8 2524.92C1250.8 2524.92 1259.59 2234.17 1244.94 2060.27C1244.94 2060.27 1314.49 2249.82 1429.98 2289.78C1609.8 2352.07 1835.92 2153.55 1964.12 2015.09L1836.09 1866.97ZM531.854 2226.91C516.912 2230.48 501.62 2232.48 486.268 2233.65C509.412 2151.5 531.444 2071.17 553.475 1990.78C544.745 2068.88 538.299 2147.87 531.854 2226.91Z"></path><path fill="#1B81A6" d="M788.557 1757.46L844.338 1816.41L782.639 2433.4L872.17 2507.99L973.01 2427.36L910.842 1822.85L954.67 1756.76L870.002 1695.35L788.557 1757.46Z"></path><path fill="#31DECD" d="M874.513 1680.53C911.427 1652.58 952.384 1630.02 995.685 1613.67C1013.67 1628.79 1030.67 1647.48 1045.31 1667.87C1030.14 1722.66 1005.12 1773.28 971.895 1817.76C943.77 1778.32 910.606 1744.69 874.044 1715.22C840.528 1747.21 808.185 1782.19 773.907 1815.18C746.075 1772.81 725.04 1726.64 710.392 1678.48C721.407 1647.19 738.282 1623.17 757.032 1608.87C802.56 1625.57 838.302 1660.96 874.513 1680.53Z"></path><path fill="#FFC5A6" d="M896.25 2132.99C878.555 2125.26 857.519 2132.4 842.285 2144.3C827.051 2156.19 815.742 2172.31 801.973 2185.84C789.141 2198.44 774.141 2208.81 757.851 2216.31C747.48 2221.11 736.289 2224.98 727.91 2232.78C719.59 2240.63 715.019 2254.16 721.348 2263.65C725.508 2269.86 733.008 2272.85 740.215 2274.85C781.23 2286.33 827.988 2278.01 860.508 2250.53C893.027 2223.17 909.023 2176.41 896.25 2132.99Z"></path><path fill="#203752" d="M1168.89 2484.31C1202.58 2338.3 1232.58 2166.56 1272.07 1995.23C1146.97 2002.85 1023.93 2008.36 900.764 2009.7C881.369 2093.79 832.971 2336.07 796.291 2495.21C921.564 2499.96 1047.19 2495.56 1168.89 2484.31Z"></path><path fill="#FFC5A6" d="M829.277 2193.93C864.609 2195.86 900.175 2193.34 934.863 2186.49C945.995 2184.26 957.714 2181.68 968.437 2185.49C980.331 2189.71 988.476 2201.55 990.527 2213.97C992.636 2226.39 989.355 2239.22 983.905 2250.59C969.96 2279.42 942.07 2299.57 912.128 2311C882.187 2322.42 849.96 2326.06 818.144 2329.63C803.261 2331.33 788.378 2332.97 773.495 2334.67C756.21 2336.6 738.281 2338.48 721.816 2332.85C705.351 2327.23 690.937 2311.76 692.402 2294.42C693.515 2281.41 703.183 2270.51 714.316 2263.83C725.507 2257.15 738.28 2253.81 750.527 2249.36C782.284 2237.93 811.171 2218.65 829.277 2193.93Z"></path><path fill="#31DECD" d="M754.103 2357.23C753.399 2305.55 752.638 2253.05 737.11 2201.08C690.587 2211.1 643.009 2216.02 595.431 2215.73C601.29 2278.13 609.259 2340.35 619.22 2402.29C664.103 2386.64 708.985 2371 754.103 2357.23Z"></path><path fill="#203752" d="M714.024 1696.76C726.681 1737.31 744.669 1775.98 767.579 1811.78C769.161 1814.18 772.97 1815.88 775.606 1813.95C812.462 1786.35 845.743 1754.53 874.688 1718.68C879.376 1712.87 871.114 1704.55 866.368 1710.47C838.185 1745.45 805.782 1776.86 769.806 1803.81C772.501 1804.52 775.138 1805.22 777.833 1805.98C755.45 1771.06 737.872 1733.44 725.509 1693.89C723.106 1686.62 711.739 1689.55 714.024 1696.76Z"></path><path fill="#203752" d="M869.942 1719.38C897.306 1748.44 926.954 1775.57 958.009 1800.64C960.704 1802.81 965.45 1803.11 967.208 1799.36C987.892 1755.59 1011.33 1713.22 1037.34 1672.38C1041.39 1666 1031.19 1660.2 1027.15 1666.58C1001.13 1707.36 977.696 1749.79 957.013 1793.56C960.06 1793.14 963.165 1792.73 966.212 1792.27C935.099 1767.19 905.509 1740.12 878.146 1711C872.989 1705.55 864.728 1713.87 869.942 1719.38Z"></path><path fill="#203752" d="M810.528 1788.22C817.266 1794.73 824.005 1801.23 830.743 1807.73C836.426 1813.24 841.876 1818.05 850.02 1819.16C858.575 1820.33 867.423 1818.81 875.977 1819.04C886.114 1819.34 896.133 1820.68 906.036 1822.97C907.911 1823.38 910.43 1823.03 911.719 1821.45C921.798 1808.73 931.876 1796.02 942.012 1783.24C946.641 1777.38 938.38 1769.12 933.692 1775.04C923.614 1787.75 913.536 1800.47 903.399 1813.24C905.274 1812.71 907.208 1812.19 909.083 1811.72C892.032 1807.79 875.333 1807.27 857.93 1807.85C853.887 1807.97 849.903 1807.91 846.329 1805.86C843.223 1804.1 840.704 1801.05 838.126 1798.59C831.68 1792.32 825.235 1786.11 818.731 1779.84C813.34 1774.63 805.079 1782.95 810.528 1788.22Z"></path><path fill="#203752" d="M903.221 1823.73C909.783 1891.11 917.752 1958.32 927.127 2025.35 928.182 2032.79 939.49 2029.81 938.494 2022.42 929.295 1956.39 921.444 1890.18 914.998 1823.79 914.237 1816.35 902.518 1816.23 903.221 1823.73zM839.298 1822.08C825.938 1926.5 809.708 2031.09 804.376 2136.26 803.966 2143.82 815.743 2143.82 816.094 2136.32 821.426 2031.15 837.657 1926.56 851.016 1822.14 852.012 1814.7 840.294 1814.7 839.298 1822.08zM474.201 2242.79C562.795 2229.2 651.974 2219.35 741.447 2213.32 748.947 2212.79 749.064 2201.07 741.506 2201.6 651.037 2207.69 560.861 2217.65 471.271 2231.42 463.771 2232.59 466.818 2243.96 474.201 2242.79z"></path><path fill="#203752" d="M736.934 2210.92C742.91 2257.79 746.426 2304.96 747.715 2352.19C747.891 2359.74 759.61 2359.8 759.434 2352.24C758.145 2303.96 754.395 2255.86 748.301 2207.99C747.364 2200.49 735.996 2203.53 736.934 2210.92Z"></path><path fill="#203752" d="M749.415 2349.85C680.157 2374.87 610.313 2398.25 539.942 2419.93 532.735 2422.15 535.665 2433.52 542.872 2431.29 613.243 2409.61 683.087 2386.23 752.344 2361.21 759.376 2358.64 756.505 2347.33 749.415 2349.85zM539.299 2220.18C543.283 2140.44 550.842 2060.87 562.033 1981.82 563.088 1974.44 551.779 1971.33 550.725 1978.78 539.357 2058.81 531.623 2139.38 527.58 2220.12 527.228 2227.68 538.947 2227.68 539.299 2220.18z"></path><path fill="#203752" d="M491.954 2225.63C514.923 2156.37 536.661 2086.65 557.169 2016.63 559.279 2009.36 547.97 2006.37 545.861 2013.58 525.353 2083.66 503.615 2153.32 480.646 2222.58 478.244 2229.73 489.611 2232.78 491.954 2225.63zM1229.3 1937.99C1229.35 1971.15 1229.47 2004.32 1229.53 2037.48 1229.53 2045.04 1241.25 2045.1 1241.25 2037.54 1241.19 2004.37 1241.07 1971.21 1241.01 1938.05 1241.01 1930.55 1229.3 1930.49 1229.3 1937.99z"></path><path fill="#31DECD" d="M1955.74 2337.54C1893.69 2326.88 1828.89 2394.9 1828.89 2484.96C1828.89 2575.02 1959.9 2598.98 2005.37 2527.97C2050.84 2456.9 2053.3 2354.24 1955.74 2337.54Z"></path><path fill="#31DECD" d="M2102.81 2187.13C2102.81 2187.13 2005.84 2192.88 1978.06 2199.5C1950.29 2206.12 1982.63 2474.54 1994.76 2531.14C1994.76 2531.14 2026.81 2541.63 2100.35 2538.7C2173.88 2535.77 2193.92 2521.76 2193.92 2508.64L2257.56 2502.78C2257.56 2502.78 2252.4 2520.77 2277.3 2520.77C2302.2 2520.77 2412.3 2516.37 2430.53 2515.38C2448.75 2514.32 2456.89 2508.17 2457.83 2500.26C2457.83 2500.26 2556.21 2503.36 2554.45 2476.06C2554.45 2476.06 2655.88 2485.26 2655.88 2436.86C2655.88 2388.46 2659.16 2160.71 2659.16 2124.38C2659.16 2088.05 2643.92 2088.05 2606.37 2086.7C2568.81 2085.36 2491.29 2089.69 2491.29 2089.69C2491.29 2089.69 2488.47 1929.03 2488.47 1890.41C2488.47 1851.8 2482.32 1817.52 2444.24 1815.06C2406.15 1812.6 2320.84 1814.36 2292.13 1814.36C2263.42 1814.36 2252.63 1830.65 2252.63 1871.9C2252.63 1913.15 2254.1 1987.21 2254.1 1987.21C2254.1 1987.21 2197.15 1988.15 2160.88 1988.15C2124.61 1988.15 2095.78 2000.51 2097.07 2034.5C2098.42 2068.66 2102.81 2187.13 2102.81 2187.13Z"></path><path fill="#203752" d="M1826.13 2503.89C1833.69 2542.56 1865.33 2566.06 1902.54 2573.67C1942.38 2581.82 1985.04 2568.05 2010.53 2535.59C2024.76 2517.48 2033.26 2494.57 2038.07 2472.19C2042.46 2451.68 2043.57 2430.24 2039.47 2409.55C2031.27 2368.07 1999.1 2335.84 1956.97 2329.45C1910.92 2322.48 1864.57 2350.2 1845.23 2391.92C1842.07 2398.71 1852.21 2404.57 1855.43 2397.72C1870.84 2364.43 1905.23 2339.83 1942.56 2340C1980.23 2340.18 2013.87 2364.79 2025.17 2400.7C2036.66 2437.21 2028.75 2480.68 2010.82 2513.85C1992.95 2546.84 1956.62 2567.05 1919.06 2564.3C1881.09 2561.49 1845.23 2540.16 1837.56 2500.9C1836.03 2493.52 1824.67 2496.5 1826.13 2503.89Z"></path><path fill="#203752" d="M1831.47 2423.5C1825.14 2438.68 1822.03 2454.96 1822.85 2471.49 1823.03 2474.65 1825.37 2477.35 1828.65 2477.41 1831.7 2477.41 1834.69 2474.77 1834.57 2471.61 1833.81 2457.25 1836.1 2442.72 1841.66 2429.36 1842.89 2426.43 1842.48 2423.09 1839.49 2421.39 1836.97 2419.87 1832.7 2420.57 1831.47 2423.5zM2018.96 2199.02C2048.26 2194.8 2077.79 2192.28 2107.38 2191.46 2120.92 2191.11 2134.69 2190.64 2148.22 2191.64 2157.83 2192.34 2169.02 2194.1 2176.29 2200.95 2185.9 2209.98 2182.85 2225.09 2182.15 2236.87 2181.27 2251.7 2180.68 2266.52 2180.39 2281.4 2179.86 2310.11 2180.45 2338.88 2182.21 2367.59 2184.2 2400.64 2187.77 2433.51 2192.75 2466.21 2193.87 2473.65 2205.23 2470.66 2204.12 2463.28 2194.63 2400.29 2190.64 2336.54 2192.4 2272.85 2192.81 2257.26 2193.81 2241.79 2194.63 2226.21 2195.27 2214.61 2194.1 2202.83 2185.84 2193.92 2170.14 2176.93 2141.25 2179.33 2120.39 2179.57 2085.47 2179.92 2050.6 2182.73 2016.03 2187.71 2008.53 2188.77 2011.58 2200.13 2018.96 2199.02zM2191.82 2489.95C2192.05 2496.63 2192.58 2504.54 2189.12 2510.57 2185.14 2517.54 2175.06 2518.77 2167.91 2520.71 2150.92 2525.28 2133.58 2528.68 2116.12 2530.9 2081.84 2535.24 2047.03 2534.95 2012.76 2530.32 2005.31 2529.32 2005.31 2541.04 2012.7 2542.04 2051.84 2547.25 2091.51 2546.78 2130.53 2540.57 2148.93 2537.64 2168.91 2534.42 2186.19 2527.33 2201.9 2520.88 2204.01 2505.18 2203.48 2490 2203.24 2482.45 2191.53 2482.39 2191.82 2489.95zM2284.8 2367.12C2270.51 2366.36 2254.16 2368.53 2249.35 2384.35 2243.61 2403.28 2245.78 2425.37 2246.54 2444.88 2246.95 2455.42 2247.36 2465.97 2247.77 2476.52 2248.18 2486.3 2247.65 2496.67 2249.35 2506.4 2252.34 2523.57 2268.04 2526.85 2283.1 2525.85 2290.6 2525.39 2290.72 2513.67 2283.16 2514.14 2277.65 2514.49 2270.92 2515.13 2265.88 2512.32 2259.61 2508.8 2260.43 2500.07 2260.19 2493.86 2259.55 2477.57 2258.9 2461.23 2258.26 2444.94 2257.67 2429.58 2256.97 2414.12 2258.67 2398.82 2259.43 2392.26 2259.78 2383.82 2266.52 2380.6 2271.97 2378.02 2278.83 2378.49 2284.69 2378.78 2292.3 2379.25 2292.3 2367.53 2284.8 2367.12zM2317.15 2377.56C2344.22 2378.2 2371.29 2378.85 2398.42 2379.55 2410.43 2379.84 2423.61 2378.56 2435.39 2381.19 2447.34 2383.83 2450.27 2394.02 2450.62 2405.04 2451.33 2430.12 2448.51 2455.66 2447.34 2480.74 2447.05 2486.48 2447.87 2493.93 2446.46 2499.49 2444.94 2505.41 2436.44 2505.29 2431.29 2506.11 2417.34 2508.46 2403.28 2509.16 2389.16 2508.69 2381.6 2508.46 2381.54 2520.18 2389.1 2520.41 2401.23 2520.82 2413.3 2520.29 2425.37 2518.77 2433.98 2517.66 2446.87 2517.36 2453.61 2510.8 2460.53 2504.06 2458.59 2490.94 2459 2482.21 2459.59 2469.73 2460.17 2457.19 2460.76 2444.71 2461.29 2432.87 2462.17 2421.04 2462.34 2409.2 2462.46 2400.76 2461.76 2391.8 2457.77 2384.18 2447.75 2365.08 2422.09 2368.54 2404.04 2368.07 2375.1 2367.36 2346.15 2366.66 2317.21 2365.96 2309.65 2365.66 2309.65 2377.38 2317.15 2377.56z"></path><path fill="#203752" d="M2381.13 2246.6C2383.07 2287.44 2384.53 2328.34 2385.59 2369.18 2385.76 2376.74 2397.48 2376.8 2397.31 2369.24 2396.25 2328.34 2394.79 2287.5 2392.85 2246.66 2392.5 2239.16 2380.78 2239.04 2381.13 2246.6zM2396.66 2225.92C2406.97 2215.08 2424.85 2217.01 2438.5 2217.07 2456.08 2217.07 2473.6 2217.54 2491.12 2218.47 2499.67 2218.94 2508.17 2219.47 2516.66 2220.11 2524.87 2220.76 2532.72 2221.75 2536.64 2229.84 2541.04 2238.92 2540.39 2250.41 2540.98 2260.25 2543.79 2307.07 2546.13 2353.94 2547.89 2400.82 2548.77 2423.84 2549.59 2446.87 2549.65 2469.9 2549.65 2477.46 2561.37 2477.52 2561.37 2469.96 2561.31 2420.09 2558.56 2370.23 2556.04 2320.49 2554.87 2297.75 2553.63 2275.08 2552.23 2252.34 2551.53 2241.03 2551.06 2228.73 2543.85 2219.41 2533.6 2206.11 2513.2 2207.99 2498.26 2207.11 2476.47 2205.82 2454.67 2205.23 2432.81 2205.35 2417.17 2205.41 2399.88 2205.52 2388.28 2217.71 2383.13 2223.16 2391.45 2231.42 2396.66 2225.92zM2090.33 2059.63C2093.2 2100.53 2094.78 2141.54 2095.14 2182.56 2095.2 2190.11 2106.91 2190.17 2106.86 2182.61 2106.5 2141.6 2104.92 2100.58 2102.05 2059.69 2101.52 2052.19 2089.8 2052.07 2090.33 2059.63zM2144.83 1995.88C2168.85 1994.3 2192.93 1993.71 2217.01 1994.24 2239.57 1994.77 2263.19 1994.94 2285.45 1999.16 2294.42 2000.86 2303.73 2003.61 2310.53 2010 2318.09 2017.15 2320.37 2027.46 2320.78 2037.54 2321.31 2052.6 2319.32 2067.83 2318.56 2082.89 2315.33 2148.34 2315.1 2213.97 2314.92 2279.53 2314.87 2306.37 2314.92 2333.14 2314.92 2359.98 2314.92 2367.54 2326.64 2367.6 2326.64 2360.04 2326.64 2301.04 2326.53 2242.03 2327.46 2183.03 2327.99 2149.39 2328.69 2115.76 2330.33 2082.13 2331.92 2049.67 2340.82 2006.95 2303.03 1991.95 2293.42 1988.14 2283.17 1986.74 2272.97 1985.74 2259.2 1984.39 2245.37 1983.52 2231.55 1982.99 2202.66 1981.82 2173.77 1982.23 2144.94 1984.16 2137.39 1984.63 2137.27 1996.35 2144.83 1995.88z"></path><path fill="#203752" d="M2247.48 1895.75C2248.18 1927.04 2247.77 1958.27 2246.13 1989.5 2245.72 1997.06 2257.44 1997.06 2257.85 1989.56 2259.43 1958.33 2259.9 1927.04 2259.2 1895.81 2259.02 1888.31 2247.3 1888.19 2247.48 1895.75zM2268.46 1833.11C2278.18 1820.16 2299.51 1822.39 2313.69 1822.33 2333.91 1822.21 2354.12 1822.33 2374.34 1822.62 2395.02 1822.92 2415.7 1823.38 2436.39 1824.15 2453.44 1824.79 2468.73 1827.9 2476.06 1844.83 2481.97 1858.42 2481.97 1873.95 2482.38 1888.54 2482.91 1908.93 2483.61 1929.32 2484.26 1949.71 2485.61 1990.32 2487.07 2030.98 2487.66 2071.65 2488.36 2118.17 2487.83 2164.69 2485.08 2211.16 2484.61 2218.72 2496.33 2218.72 2496.8 2211.22 2502.19 2121.22 2498.67 2031.1 2495.68 1941.04 2494.98 1919.65 2494.75 1898.21 2493.75 1876.82 2493.05 1862.29 2491.29 1846.71 2483.61 1833.99 2474.88 1819.46 2460.29 1813.95 2443.95 1812.78 2422.27 1811.2 2400.41 1811.31 2378.67 1810.96 2353.65 1810.55 2328.63 1810.38 2303.61 1810.67 2286.68 1810.9 2269.16 1812.84 2258.26 1827.31 2253.75 1833.35 2264.01 1839.09 2268.46 1833.11z"></path><path fill="#203752" d="M2505.12 2093.97C2544.55 2090.27 2584.4 2090.98 2623.59 2096.72C2631.56 2097.89 2640.76 2098.83 2647.15 2104.28C2653.18 2109.43 2655.47 2117.81 2656.52 2125.37C2659.04 2143.71 2656.11 2162.87 2654.06 2181.15C2645.27 2259.84 2651.07 2338.77 2650.14 2417.7C2650.08 2422.97 2649.96 2428.3 2649.84 2433.57C2649.73 2438.15 2650.31 2444.3 2648.5 2448.69C2644.92 2457.48 2629.51 2459.3 2621.37 2461.35C2600.27 2466.68 2578.65 2469.14 2556.86 2468.91C2549.3 2468.85 2549.24 2480.57 2556.8 2480.63C2577.25 2480.8 2597.75 2478.75 2617.74 2474.3C2632.97 2470.84 2656.23 2467.74 2660.39 2449.63C2662.38 2440.84 2661.68 2431 2661.8 2422.09C2661.97 2410.55 2661.97 2398.95 2661.91 2387.4C2661.74 2365.2 2661.27 2343.05 2660.92 2320.84C2660.27 2276.6 2660.33 2232.25 2665.02 2188.18C2667.13 2168.32 2670.35 2148.11 2668.54 2128.13C2667.13 2112.72 2661.68 2097.13 2646.62 2090.33C2637.36 2086.17 2626.64 2085.35 2616.62 2084.06C2604.32 2082.48 2591.95 2081.31 2579.53 2080.66C2554.75 2079.32 2529.9 2079.9 2505.18 2082.25C2497.73 2082.89 2497.62 2094.67 2505.12 2093.97Z"></path><path fill="#203752" d="M2460.06 2507.22C2480.63 2507.63 2501.14 2506.52 2521.53 2503.88 2529.85 2502.83 2538.46 2501.66 2545.84 2497.32 2553.87 2492.57 2558.21 2484.66 2561.96 2476.46 2565.06 2469.66 2554.92 2463.8 2551.76 2470.66 2548.42 2477.93 2545.08 2485.25 2537.23 2488.59 2530.2 2491.58 2521.94 2492.16 2514.44 2493.04 2496.39 2495.15 2478.23 2495.91 2460.06 2495.5 2452.56 2495.33 2452.5 2507.05 2460.06 2507.22zM2273.2 2473.06C2326.76 2477.99 2380.6 2478.22 2434.22 2473.71 2441.72 2473.06 2441.78 2461.35 2434.28 2461.99 2380.66 2466.5 2326.81 2466.33 2273.26 2461.35 2265.7 2460.64 2265.7 2472.36 2273.2 2473.06zM2266.11 2420.04C2318.91 2423.79 2371.87 2424.91 2424.79 2423.44 2432.34 2423.21 2432.4 2411.49 2424.84 2411.72 2371.93 2413.19 2318.96 2412.02 2266.17 2408.32 2258.67 2407.8 2258.61 2419.52 2266.11 2420.04zM1985.51 2408.26C1972.73 2396.89 1955.39 2391.5 1938.51 2394.67 1923.57 2397.48 1909.16 2410.66 1915.37 2426.89 1921.87 2443.89 1942.21 2447.11 1954.51 2458.48 1960.84 2464.34 1965.64 2472.13 1965.17 2481.03 1964.71 2490 1958.2 2495.57 1950 2497.97 1932.13 2503.24 1905.94 2496.03 1905.58 2473.83 1905.47 2466.27 1893.75 2466.21 1893.87 2473.77 1894.16 2491.52 1907.46 2505.7 1924.28 2509.92 1940.39 2513.96 1963.01 2510.92 1972.62 2495.68 1982.28 2480.21 1974.67 2460.76 1962.19 2449.63 1955.21 2443.42 1947.13 2439.37 1939.04 2434.86 1932.71 2431.35 1922.58 2424.32 1926.33 2415.59 1929.78 2407.5 1941.09 2405.39 1948.83 2405.51 1959.37 2405.62 1969.51 2409.67 1977.36 2416.64 1982.87 2421.56 1991.19 2413.3 1985.51 2408.26z"></path><path fill="#203752" d="M1963.77 2377.03C1941.91 2425.43 1932.36 2479.57 1901.54 2523.69 1897.21 2529.84 1907.4 2535.64 1911.74 2529.49 1942.62 2485.31 1952.11 2431.29 1973.97 2382.83 1977.01 2375.97 1966.88 2370.11 1963.77 2377.03zM1961.19 2268.05C1960.72 2291.02 1962.48 2314.04 1966.46 2336.66 1966.99 2339.77 1970.74 2341.58 1973.61 2340.88 1976.89 2340 1978.36 2336.84 1977.83 2333.73 1974.08 2312.05 1972.44 2290.08 1972.91 2268.11 1973.09 2260.55 1961.37 2260.55 1961.19 2268.05zM2000.16 2250.29C2050.49 2246.71 2100.94 2244.25 2151.39 2242.96 2158.95 2242.79 2159.01 2231.07 2151.45 2231.25 2101 2232.53 2050.55 2234.94 2000.22 2238.57 1992.78 2239.1 1992.66 2250.82 2000.16 2250.29z"></path><path fill="#203752" d="M1968.51 2310C2015.74 2308.48 2062.91 2305.55 2109.96 2301.15 2117.4 2300.45 2117.52 2288.73 2110.02 2289.43 2062.97 2293.83 2015.8 2296.76 1968.57 2298.28 1961.07 2298.51 1960.96 2310.23 1968.51 2310zM2179.69 2342.05C2135.21 2347.62 2090.51 2351.02 2045.68 2352.43 2038.12 2352.66 2038.06 2364.38 2045.62 2364.14 2091.44 2362.74 2137.15 2359.1 2182.67 2353.42 2190.12 2352.48 2187.07 2341.12 2179.69 2342.05zM2047.62 2429.12C2085.23 2427.95 2122.79 2425.96 2160.29 2423.15 2167.79 2422.56 2167.91 2410.84 2160.35 2411.43 2122.85 2414.24 2085.29 2416.23 2047.67 2417.41 2040.17 2417.64 2040.06 2429.36 2047.62 2429.12zM2034.79 2493.34C2079.67 2491.11 2124.43 2488.19 2169.2 2484.44 2176.7 2483.79 2176.76 2472.07 2169.26 2472.72 2124.49 2476.41 2079.67 2479.4 2034.84 2481.62 2027.29 2482.03 2027.23 2493.75 2034.79 2493.34zM2199.43 2512.68C2217.42 2511.04 2235.47 2509.4 2253.46 2507.76 2256.62 2507.46 2259.32 2505.3 2259.37 2501.96 2259.37 2499.03 2256.74 2495.8 2253.57 2496.04 2235.58 2497.68 2217.54 2499.32 2199.55 2500.96 2196.39 2501.25 2193.69 2503.42 2193.63 2506.76 2193.63 2509.69 2196.27 2512.97 2199.43 2512.68zM2205.24 2451.85C2219.71 2450.56 2234.18 2449.27 2248.65 2447.98 2251.82 2447.69 2254.51 2445.52 2254.57 2442.18 2254.57 2439.25 2251.94 2436.03 2248.77 2436.26 2234.3 2437.55 2219.83 2438.84 2205.35 2440.13 2202.19 2440.43 2199.49 2442.59 2199.44 2445.93 2199.38 2448.92 2202.07 2452.14 2205.24 2451.85zM2199.03 2392.73C2213.21 2390.68 2227.56 2389.86 2241.92 2390.04 2249.47 2390.15 2249.53 2378.44 2241.98 2378.32 2226.62 2378.14 2211.27 2379.2 2196.1 2381.42 2192.99 2381.89 2191.17 2385.76 2191.88 2388.57 2192.76 2391.91 2195.86 2393.2 2199.03 2392.73zM2133.63 2051.48C2188.48 2049.66 2243.38 2048.9 2298.28 2049.19 2305.84 2049.25 2305.9 2037.53 2298.34 2037.48 2243.44 2037.18 2188.54 2037.94 2133.69 2039.76 2126.13 2040 2126.08 2051.71 2133.63 2051.48zM2109.78 2110.66C2163.98 2110.55 2218.12 2108.61 2272.21 2104.8 2279.71 2104.28 2279.82 2092.56 2272.26 2093.08 2218.18 2096.89 2164.04 2098.83 2109.84 2098.94 2102.28 2098.94 2102.23 2110.66 2109.78 2110.66zM2309.7 2151.27C2262.42 2153.08 2215.08 2154.9 2167.79 2156.72 2160.23 2157.01 2160.17 2168.73 2167.73 2168.43 2215.02 2166.62 2262.36 2164.8 2309.65 2162.98 2317.15 2162.69 2317.2 2150.97 2309.7 2151.27zM2196.1 2230.96C2225.98 2230.61 2255.92 2230.26 2285.8 2229.91 2293.36 2229.85 2293.42 2218.07 2285.86 2218.19 2255.98 2218.54 2226.04 2218.89 2196.15 2219.24 2188.6 2219.3 2188.54 2231.02 2196.1 2230.96zM2309.71 2267.16C2282.46 2269.33 2255.21 2271.5 2227.91 2273.67 2220.41 2274.25 2220.35 2285.97 2227.85 2285.39 2255.1 2283.22 2282.34 2281.05 2309.65 2278.88 2317.09 2278.3 2317.21 2266.58 2309.71 2267.16zM2205.18 2335.89C2234.71 2335.66 2264.24 2335.37 2293.77 2335.13 2301.33 2335.07 2301.39 2323.36 2293.83 2323.41 2264.3 2323.65 2234.77 2323.94 2205.24 2324.18 2197.68 2324.23 2197.62 2336.01 2205.18 2335.89zM2329.28 2313.98C2347.21 2311.35 2365.31 2310.35 2383.42 2310.76 2390.98 2310.94 2391.03 2299.22 2383.48 2299.04 2364.37 2298.57 2345.27 2299.86 2326.35 2302.62 2323.24 2303.08 2321.43 2306.95 2322.13 2309.76 2323.01 2313.1 2326.17 2314.45 2329.28 2313.98zM2332.32 2246.9C2349.73 2245.72 2367.13 2244.61 2384.53 2243.44 2387.69 2243.2 2390.39 2240.92 2390.45 2237.64 2390.45 2234.65 2387.81 2231.54 2384.65 2231.72 2367.25 2232.89 2349.84 2234.01 2332.44 2235.18 2329.28 2235.41 2326.58 2237.7 2326.52 2240.98 2326.46 2243.97 2329.16 2247.07 2332.32 2246.9zM2332.38 2177.11C2369.18 2176.87 2405.98 2176.58 2442.77 2176.35 2450.33 2176.29 2450.39 2164.57 2442.83 2164.63 2406.04 2164.86 2369.24 2165.15 2332.44 2165.39 2324.88 2165.39 2324.83 2177.11 2332.38 2177.11zM2482.21 2096.14C2441.49 2097.25 2400.76 2098.36 2360.04 2099.48 2352.48 2099.71 2352.42 2111.43 2359.98 2111.2 2400.7 2110.08 2441.43 2108.97 2482.15 2107.86 2489.71 2107.62 2489.77 2095.9 2482.21 2096.14zM2327.11 2047.44C2370.06 2048.14 2413.01 2046.91 2455.9 2043.75 2463.4 2043.22 2463.51 2031.5 2455.96 2032.03 2413.12 2035.14 2370.12 2036.37 2327.17 2035.72 2319.61 2035.6 2319.55 2047.32 2327.11 2047.44zM2292.95 1979.18C2351.19 1978.6 2409.43 1977.95 2467.67 1977.37 2475.23 1977.31 2475.29 1965.59 2467.73 1965.65 2409.49 1966.24 2351.25 1966.88 2293.01 1967.47 2285.45 1967.52 2285.39 1979.3 2292.95 1979.18zM2308.71 1900.6C2368.3 1899.31 2427.83 1898.02 2487.42 1896.73 2494.98 1896.56 2495.04 1884.84 2487.48 1885.02 2427.89 1886.3 2368.36 1887.59 2308.77 1888.88 2301.27 1889.06 2301.15 1900.78 2308.71 1900.6zM2504.65 2150.86C2543.61 2150.86 2582.58 2150.8 2621.6 2150.8 2629.16 2150.8 2629.22 2139.08 2621.66 2139.08 2582.69 2139.08 2543.73 2139.14 2504.71 2139.14 2497.15 2139.14 2497.15 2150.86 2504.65 2150.86zM2646.62 2193.16C2614.16 2192.99 2581.76 2194.16 2549.41 2196.74 2541.91 2197.32 2541.85 2209.04 2549.35 2208.46 2581.7 2205.88 2614.16 2204.65 2646.56 2204.88 2654.12 2204.88 2654.18 2193.16 2646.62 2193.16zM2553.28 2278.24C2582.64 2277.48 2611.99 2276.78 2641.35 2276.01 2648.91 2275.84 2648.97 2264.12 2641.41 2264.3 2612.05 2265.06 2582.7 2265.76 2553.34 2266.52 2545.78 2266.7 2545.72 2278.42 2553.28 2278.24zM2649.26 2329.57C2626.94 2331.15 2604.55 2332.73 2582.23 2334.32 2574.73 2334.84 2574.61 2346.56 2582.17 2346.03 2604.49 2344.45 2626.88 2342.87 2649.2 2341.29 2656.7 2340.7 2656.82 2328.98 2649.26 2329.57zM2567.76 2415.06C2585.69 2413.42 2603.62 2412.77 2621.6 2413.18 2629.16 2413.36 2629.22 2401.64 2621.66 2401.46 2603.67 2401.05 2585.69 2401.64 2567.82 2403.34 2564.65 2403.63 2561.96 2405.8 2561.9 2409.14 2561.9 2412.07 2564.59 2415.35 2567.76 2415.06zM2465.21 2459.07C2489.53 2458.89 2513.85 2457.6 2538.05 2455.26 2541.21 2454.96 2543.91 2452.8 2543.96 2449.46 2543.96 2446.53 2541.33 2443.24 2538.16 2443.54 2513.96 2445.88 2489.65 2447.17 2465.33 2447.35 2457.71 2447.4 2457.66 2459.12 2465.21 2459.07zM2469.2 2410.73C2490.82 2410.02 2512.44 2409.38 2534.06 2408.68 2541.62 2408.44 2541.68 2396.72 2534.12 2396.96 2512.5 2397.66 2490.88 2398.31 2469.26 2399.01 2461.7 2399.24 2461.64 2410.96 2469.2 2410.73zM2393.38 2264.59C2432.93 2263.71 2472.54 2262.77 2512.09 2261.89 2519.65 2261.72 2519.71 2250 2512.15 2250.17 2472.6 2251.05 2432.99 2251.99 2393.44 2252.87 2385.88 2253.04 2385.82 2264.76 2393.38 2264.59zM2542.09 2299.92C2504.82 2301.33 2467.56 2303.67 2430.35 2306.9 2422.91 2307.54 2422.79 2319.26 2430.29 2318.62 2467.5 2315.39 2504.7 2313.05 2542.03 2311.64 2549.53 2311.35 2549.59 2299.63 2542.09 2299.92zM2403.34 2364.08C2439.96 2364.14 2476.52 2363.56 2513.08 2362.38 2520.64 2362.15 2520.7 2350.43 2513.14 2350.67 2476.58 2351.9 2439.96 2352.48 2403.4 2352.36 2395.84 2352.36 2395.78 2364.08 2403.34 2364.08z"></path><path fill="#1B81A6" d="M2721.33 871.525C2717.58 1174.16 2713.83 1476.8 2710.02 1779.43C2346.92 1766.95 1983.52 1762.79 1620.18 1767.01C1612.62 1461.15 1599.73 1162.38 1593.93 865.431C1967.52 847.326 2342.17 850.724 2721.33 871.525Z"></path><path fill="#203752" d="M1581.56 1740.23C1969.45 1744.8 2357.29 1749.32 2745.18 1753.89 2742.71 1775.39 2740.25 1796.89 2737.73 1818.34 2451.91 1797.77 2164.86 1821.27 1878.46 1812.95 1782.77 1810.2 1677.36 1803.87 1581.68 1806.27 1581.62 1785.64 1582.91 1771.82 1581.56 1740.23zM1551.85 824.65C1955.45 829.221 2359.04 833.732 2762.63 838.303 2760.06 859.807 2757.48 881.311 2754.9 902.756 2457.54 882.189 2158.77 905.686 1860.76 897.424 1761.21 894.67 1651.52 888.342 1551.97 890.744 1551.91 870.061 1553.26 856.232 1551.85 824.65z"></path><path fill="#31DECD" d="M1735.78 1188.98C1737.77 1341.27 1739.77 1493.55 1741.76 1645.84 1741.82 1648.94 1741.93 1652.23 1743.81 1654.69 1746.56 1658.2 1751.78 1658.26 1756.23 1658.09 1776.92 1657.09 1805.98 1661.25 1826.72 1660.25 1826.72 1498.36 1828.77 1341.03 1820.63 1184.12 1792.85 1185.17 1765.08 1186.23 1735.78 1188.98zM1902.42 1293.87C1904.41 1414.63 1906.4 1535.39 1908.4 1656.16 1908.46 1658.62 1908.57 1661.25 1910.45 1663.13 1913.2 1665.88 1918.42 1666 1922.87 1665.82 1943.55 1665.06 1972.62 1668.34 1993.36 1667.52 1993.36 1539.14 1995.41 1414.4 1987.26 1289.94 1959.49 1290.82 1931.72 1291.7 1902.42 1293.87zM2082.89 1230.7C2084.89 1373.67 2086.88 1516.64 2088.87 1659.55 2088.93 1662.42 2089.05 1665.59 2090.92 1667.81 2093.67 1671.09 2098.89 1671.21 2103.34 1670.98 2124.08 1670.04 2153.09 1673.96 2173.83 1673.03 2173.83 1521.04 2175.88 1373.32 2167.74 1226.07 2139.96 1227.13 2112.19 1228.12 2082.89 1230.7zM2281.11 1158.58C2283.1 1325.51 2285.1 1492.45 2287.09 1659.38 2287.15 1662.78 2287.26 1666.41 2289.14 1669.05 2291.89 1672.91 2297.11 1672.97 2301.56 1672.74 2322.24 1671.63 2351.31 1676.2 2372.05 1675.08 2372.05 1497.6 2374.1 1325.16 2365.96 1153.19 2338.18 1154.36 2310.41 1155.53 2281.11 1158.58zM2488.48 1034.88C2490.47 1241.78 2492.46 1448.67 2494.45 1655.57 2494.51 1659.73 2494.63 1664.24 2496.5 1667.58 2499.26 1672.33 2504.47 1672.44 2508.93 1672.21 2529.67 1670.86 2558.67 1676.49 2579.41 1675.14 2579.41 1455.18 2581.47 1241.43 2573.32 1028.26 2545.55 1029.67 2517.77 1031.13 2488.48 1034.88zM505.606 973.657C545.977 914.419 586.348 855.239 626.719 796.001 623.672 796.411 620.567 796.821 617.52 797.29 637.207 817.622 656.953 837.896 676.641 858.228 679.512 861.216 683.672 859.868 685.84 856.939 697.031 841.646 708.223 826.353 719.414 811.06 716.367 811.47 713.262 811.88 710.215 812.349 721.348 825.122 731.133 838.892 739.688 853.54 741.504 856.646 746.426 857.642 748.945 854.712 766.348 834.439 783.164 813.696 799.453 792.486 796.699 792.486 793.945 792.544 791.192 792.544 844.805 847.622 893.789 906.978 937.559 970.142 939.844 973.423 945.703 974.478 947.695 970.142 968.789 924.38 984.551 876.392 994.336 826.997 991.055 827.876 987.832 828.755 984.551 829.634 992.813 836.431 1000.96 843.286 1009.28 850.025 1014.26 854.068 1019.71 858.638 1026.39 855.591 1033.01 852.603 1035.94 843.521 1039.04 837.603 1043.96 828.286 1048.89 818.97 1053.81 809.653 1051.17 810.357 1048.48 811.118 1045.84 811.821 1053.46 815.161 1061.07 818.501 1068.69 821.841 1071.86 823.247 1074.67 822.486 1076.66 819.673 1098.69 789.087 1120.72 758.501 1142.75 727.915 1139.71 728.325 1136.6 728.735 1133.55 729.204 1146.09 740.513 1158.63 751.763 1171.11 763.071 1173.34 765.122 1177.21 765.474 1179.38 763.013 1226.13 709.986 1270.31 654.673 1311.68 597.368 1316.07 591.275 1305.88 585.474 1301.48 591.568 1260.7 648.052 1217.11 702.544 1171 754.81 1173.75 754.81 1176.5 754.751 1179.26 754.751 1166.72 743.443 1154.18 732.193 1141.7 720.884 1138.65 718.13 1134.73 719.009 1132.5 722.173 1110.47 752.759 1088.44 783.345 1066.41 813.931 1069.04 813.228 1071.74 812.466 1074.38 811.763 1066.76 808.423 1059.14 805.083 1051.52 801.743 1048.71 800.513 1045.14 800.923 1043.55 803.911 1037.05 816.157 1030.66 828.521 1024.1 840.767 1021.99 844.751 1021.05 843.814 1017.42 841.763 1014.61 840.122 1012.09 837.31 1009.57 835.259 1003.95 830.63 998.32 826.001 992.754 821.372 989.649 818.794 983.906 819.321 982.969 824.009 973.359 872.466 958.125 919.575 937.442 964.4 940.84 964.4 944.238 964.4 947.578 964.4 903.223 900.415 853.594 840.122 799.277 784.341 797.285 782.29 792.891 781.939 791.016 784.4 774.727 805.61 757.91 826.353 740.508 846.626 743.613 847.036 746.66 847.388 749.766 847.798 740.684 832.271 730.195 817.681 718.359 804.146 715.606 801.04 711.211 802.622 709.16 805.435 697.969 820.728 686.777 836.021 675.586 851.314 678.633 850.903 681.738 850.493 684.785 850.025 665.098 829.693 645.352 809.419 625.664 789.087 622.852 786.216 618.516 787.329 616.465 790.376 576.094 849.614 535.723 908.794 495.352 968.032 491.192 974.126 501.387 979.868 505.606 973.657z"></path><path fill="#203752" d="M1766.9 1114.74C1819.46 1145.74 1872.07 1176.74 1924.63 1207.67C1931.31 1211.6 1937.93 1215.58 1944.67 1219.45C1949.36 1222.15 1954.28 1224.84 1959.79 1225.31C1966.35 1225.84 1972.62 1223.61 1978.71 1221.56C1985.8 1219.22 1992.89 1216.81 1999.98 1214.29C2025.82 1205.27 2051.31 1195.31 2076.56 1184.88C2179.69 1142.11 2278.13 1089.25 2378.15 1039.98C2434.63 1012.15 2491.7 985.427 2550.3 962.341C2557.21 959.587 2554.34 948.22 2547.37 950.974C2445.82 990.993 2349.03 1041.5 2251.53 1090.31C2202.66 1114.74 2153.56 1138.77 2103.52 1160.74C2078.21 1171.81 2052.66 1182.36 2026.82 1192.15C2014.05 1196.95 2001.21 1201.58 1988.32 1206.03C1982.05 1208.2 1975.72 1210.6 1969.34 1212.36C1960.49 1214.76 1955.39 1212.18 1947.95 1207.85C1889.47 1173.45 1831.12 1139 1772.7 1104.55C1766.19 1100.74 1760.39 1110.93 1766.9 1114.74Z"></path><path fill="#203752" d="M1997.4 982.966C1982.7 976.579 1964.12 974.88 1949.71 983.201C1935.53 991.404 1933.71 1007.93 1943.09 1020.64C1953.28 1034.53 1970.51 1039.27 1984.39 1048.36C1995.82 1055.8 2008.01 1073.9 1993.24 1084.57C1978.89 1094.94 1958.2 1088.14 1946.72 1076.83C1941.33 1071.56 1933.07 1079.88 1938.52 1085.15C1949.53 1095.99 1965.29 1102.67 1980.94 1100.97C1994.24 1099.51 2008.24 1091.72 2011.23 1077.65C2014.57 1062.01 2004.02 1047.65 1991.84 1039.16C1978.65 1030.02 1957.38 1025.45 1950.18 1009.69C1946.02 1000.54 1952.23 993.689 1960.84 991.052C1970.86 987.947 1982.11 988.943 1991.66 993.103C1998.46 996.15 2004.37 986.013 1997.4 982.966Z"></path><path fill="#203752" d="M1960.2 968.262C1965.24 1017.13 1970.22 1066 1975.25 1114.86C1976.02 1122.31 1987.74 1122.42 1986.97 1114.92C1981.93 1066.06 1976.95 1017.19 1971.91 968.321C1971.15 960.88 1959.38 960.762 1960.2 968.262Z"></path></svg>